<mxfile host="app.diagrams.net" agent="Mozilla/5.0 (Windows NT 10.0; Win64; x64) AppleWebKit/537.36 (KHTML, like Gecko) Chrome/138.0.0.0 Safari/537.36" version="28.0.7">
  <diagram name="Page-1" id="oVw9v_Q_mQe5IjcKRwbm">
    <mxGraphModel dx="3565" dy="3043" grid="1" gridSize="10" guides="1" tooltips="1" connect="1" arrows="1" fold="1" page="1" pageScale="1" pageWidth="850" pageHeight="1100" math="0" shadow="0">
      <root>
        <mxCell id="0" />
        <mxCell id="1" parent="0" />
        <mxCell id="4mfTtb763KyPnUBjy1Yq-23" value="Stable/ Non-Volatil" style="rounded=0;whiteSpace=wrap;html=1;fillColor=#f8cecc;strokeColor=#b85450;align=left;verticalAlign=top;fontSize=48;fontStyle=1;spacingTop=0;spacingLeft=0;spacing=20;textOpacity=90;movable=1;resizable=1;rotatable=1;deletable=1;editable=1;locked=0;connectable=1;" parent="1" vertex="1">
          <mxGeometry x="80" y="-810" width="1240" height="970" as="geometry" />
        </mxCell>
        <mxCell id="4mfTtb763KyPnUBjy1Yq-33" style="edgeStyle=elbowEdgeStyle;rounded=0;orthogonalLoop=1;jettySize=auto;html=1;endArrow=none;endFill=0;" parent="1" source="XAuHsIVVw2NcSG9I5JBK-29" edge="1">
          <mxGeometry relative="1" as="geometry">
            <mxPoint x="470" y="200" as="targetPoint" />
          </mxGeometry>
        </mxCell>
        <mxCell id="XAuHsIVVw2NcSG9I5JBK-29" value="Circle" style="swimlane;childLayout=stackLayout;horizontal=1;startSize=50;horizontalStack=0;rounded=1;fontSize=14;fontStyle=0;strokeWidth=2;resizeParent=0;resizeLast=1;shadow=0;dashed=0;align=center;arcSize=4;whiteSpace=wrap;html=1;" parent="1" vertex="1">
          <mxGeometry x="360" y="240" width="220" height="160" as="geometry" />
        </mxCell>
        <mxCell id="XAuHsIVVw2NcSG9I5JBK-79" value="&lt;div&gt;&lt;span style=&quot;background-color: transparent; color: light-dark(rgb(0, 0, 0), rgb(255, 255, 255));&quot;&gt;# _radius: float&lt;/span&gt;&lt;/div&gt;&lt;div&gt;&lt;hr&gt;&lt;div&gt;+ Circle(center: Point, radius: float)&lt;/div&gt;&lt;/div&gt;&lt;div&gt;+ draw(painter: QPainter): void&lt;/div&gt;&lt;div&gt;+ scale(scalingFactor: float): void&lt;/div&gt;" style="text;html=1;align=left;verticalAlign=top;resizable=0;points=[];autosize=1;strokeWidth=2;" parent="XAuHsIVVw2NcSG9I5JBK-29" vertex="1">
          <mxGeometry y="50" width="220" height="110" as="geometry" />
        </mxCell>
        <mxCell id="XAuHsIVVw2NcSG9I5JBK-74" value="ActionFactory" style="swimlane;childLayout=stackLayout;horizontal=1;startSize=50;horizontalStack=0;rounded=1;fontSize=14;fontStyle=0;strokeWidth=2;resizeParent=0;resizeLast=1;shadow=0;dashed=0;align=center;arcSize=4;whiteSpace=wrap;html=1;" parent="1" vertex="1">
          <mxGeometry x="870" y="-90.5" width="280" height="201" as="geometry" />
        </mxCell>
        <mxCell id="XAuHsIVVw2NcSG9I5JBK-75" value="+ get_dialogs(type:string):&amp;nbsp;&lt;div&gt;&lt;span style=&quot;white-space: pre;&quot;&gt;&#x9;&lt;/span&gt;Dict&amp;lt;string -&amp;gt; action&amp;gt;&lt;div&gt;&lt;br&gt;&lt;/div&gt;&lt;/div&gt;" style="align=left;spacingLeft=4;spacingRight=4;fontSize=12;verticalAlign=top;resizable=0;rotatable=0;part=1;html=1;whiteSpace=wrap;strokeWidth=2;rounded=0;strokeColor=default;" parent="XAuHsIVVw2NcSG9I5JBK-74" vertex="1">
          <mxGeometry y="50" width="280" height="151" as="geometry" />
        </mxCell>
        <mxCell id="4mfTtb763KyPnUBjy1Yq-17" style="edgeStyle=elbowEdgeStyle;rounded=0;orthogonalLoop=1;jettySize=auto;html=1;endArrow=none;endFill=0;startArrow=open;startFill=0;startSize=14;dashed=1;dashPattern=8 8;exitX=-0.007;exitY=0.466;exitDx=0;exitDy=0;exitPerimeter=0;entryX=1;entryY=0.5;entryDx=0;entryDy=0;" parent="1" source="XAuHsIVVw2NcSG9I5JBK-112" target="da-meSoMWnKq4skf2PyW-1" edge="1">
          <mxGeometry relative="1" as="geometry">
            <mxPoint x="1740" y="-355" as="targetPoint" />
            <Array as="points">
              <mxPoint x="1750" y="-295" />
            </Array>
            <mxPoint x="2320" y="-315" as="sourcePoint" />
          </mxGeometry>
        </mxCell>
        <mxCell id="4mfTtb763KyPnUBjy1Yq-13" style="edgeStyle=elbowEdgeStyle;rounded=0;orthogonalLoop=1;jettySize=auto;html=1;exitX=0;exitY=0.549;exitDx=0;exitDy=0;exitPerimeter=0;endArrow=none;endFill=0;startArrow=open;startFill=0;startSize=14;dashed=1;dashPattern=8 8;" parent="1" source="XAuHsIVVw2NcSG9I5JBK-112" edge="1">
          <mxGeometry relative="1" as="geometry">
            <mxPoint x="1560" y="-114" as="sourcePoint" />
            <mxPoint x="2040" y="-215" as="targetPoint" />
            <Array as="points" />
          </mxGeometry>
        </mxCell>
        <mxCell id="da-meSoMWnKq4skf2PyW-40" style="edgeStyle=orthogonalEdgeStyle;rounded=0;orthogonalLoop=1;jettySize=auto;html=1;endArrow=block;endFill=0;entryX=1;entryY=0.5;entryDx=0;entryDy=0;endSize=14;shadow=0;" parent="1" source="XAuHsIVVw2NcSG9I5JBK-116" target="4mfTtb763KyPnUBjy1Yq-4" edge="1">
          <mxGeometry relative="1" as="geometry">
            <mxPoint x="2330" y="250" as="targetPoint" />
            <Array as="points">
              <mxPoint x="2360" y="280" />
              <mxPoint x="2360" y="-610" />
              <mxPoint x="1200" y="-610" />
              <mxPoint x="1200" y="-220" />
            </Array>
          </mxGeometry>
        </mxCell>
        <mxCell id="da-meSoMWnKq4skf2PyW-46" style="edgeStyle=orthogonalEdgeStyle;rounded=0;orthogonalLoop=1;jettySize=auto;html=1;endArrow=none;endFill=0;startArrow=none;startFill=0;startSize=14;entryX=1;entryY=0.5;entryDx=0;entryDy=0;" parent="1" source="XAuHsIVVw2NcSG9I5JBK-116" edge="1" target="XAuHsIVVw2NcSG9I5JBK-112">
          <mxGeometry relative="1" as="geometry">
            <mxPoint x="2239.9999999999995" y="-225" as="targetPoint" />
            <Array as="points">
              <mxPoint x="2280" y="240" />
              <mxPoint x="2280" y="-240" />
              <mxPoint x="2200" y="-240" />
            </Array>
          </mxGeometry>
        </mxCell>
        <mxCell id="XAuHsIVVw2NcSG9I5JBK-116" value="&lt;p style=&quot;margin:0px;margin-top:6px;text-align:center;&quot;&gt;&lt;b&gt;TranslateShapeCommand&lt;/b&gt;&lt;/p&gt;&lt;hr size=&quot;1&quot; style=&quot;border-style:solid;&quot;&gt;&lt;p style=&quot;margin: 0px 0px 0px 8px;&quot;&gt;# _shape: Shape&lt;/p&gt;&lt;p style=&quot;margin: 0px 0px 0px 8px;&quot;&gt;# _delta_x: int&lt;/p&gt;&lt;p style=&quot;margin: 0px 0px 0px 8px;&quot;&gt;# _delta_y: int&lt;/p&gt;&lt;hr&gt;&lt;p style=&quot;margin: 0px 0px 0px 8px;&quot;&gt;+ TranslateShapeCommand(shape: Shape, delta_x: int, delta_y:int)&lt;/p&gt;&lt;p style=&quot;margin: 0px 0px 0px 8px;&quot;&gt;+ execute(): void&lt;br&gt;+ undo(): void&lt;/p&gt;&lt;p style=&quot;margin: 0px 0px 0px 8px;&quot;&gt;+ redo(): void&lt;/p&gt;" style="align=left;overflow=fill;html=1;dropTarget=0;whiteSpace=wrap;" parent="1" vertex="1">
          <mxGeometry x="1800" y="185" width="400" height="160" as="geometry" />
        </mxCell>
        <mxCell id="XAuHsIVVw2NcSG9I5JBK-117" value="" style="shape=component;jettyWidth=8;jettyHeight=4;" parent="XAuHsIVVw2NcSG9I5JBK-116" vertex="1">
          <mxGeometry x="1" width="20" height="20" relative="1" as="geometry">
            <mxPoint x="-24" y="4" as="offset" />
          </mxGeometry>
        </mxCell>
        <mxCell id="da-meSoMWnKq4skf2PyW-41" style="edgeStyle=orthogonalEdgeStyle;rounded=0;orthogonalLoop=1;jettySize=auto;html=1;endArrow=none;endFill=0;" parent="1" source="XAuHsIVVw2NcSG9I5JBK-118" edge="1">
          <mxGeometry relative="1" as="geometry">
            <mxPoint x="2360" y="265" as="targetPoint" />
          </mxGeometry>
        </mxCell>
        <mxCell id="da-meSoMWnKq4skf2PyW-47" style="edgeStyle=orthogonalEdgeStyle;rounded=0;orthogonalLoop=1;jettySize=auto;html=1;endArrow=none;endFill=0;startArrow=none;startFill=0;startSize=14;" parent="1" source="XAuHsIVVw2NcSG9I5JBK-118" edge="1">
          <mxGeometry relative="1" as="geometry">
            <mxPoint x="2280" y="235" as="targetPoint" />
            <Array as="points">
              <mxPoint x="2280" y="400" />
            </Array>
          </mxGeometry>
        </mxCell>
        <mxCell id="XAuHsIVVw2NcSG9I5JBK-118" value="&lt;p style=&quot;margin:0px;margin-top:6px;text-align:center;&quot;&gt;&lt;b&gt;ScaleShapeCommand&lt;/b&gt;&lt;/p&gt;&lt;hr size=&quot;1&quot; style=&quot;border-style:solid;&quot;&gt;&lt;p style=&quot;margin: 0px 0px 0px 8px;&quot;&gt;# _shape: Shape&lt;/p&gt;&lt;p style=&quot;margin: 0px 0px 0px 8px;&quot;&gt;# _scalingFactor: float&lt;/p&gt;&lt;hr&gt;&lt;p style=&quot;margin: 0px 0px 0px 8px;&quot;&gt;+ ScaleShapeCommand(shape: Shape, scalingFactor: float)&lt;/p&gt;&lt;p style=&quot;margin: 0px 0px 0px 8px;&quot;&gt;+ execute(): void&lt;br&gt;+ undo(): void&lt;/p&gt;&lt;p style=&quot;margin: 0px 0px 0px 8px;&quot;&gt;+ redo(): void&lt;/p&gt;" style="align=left;overflow=fill;html=1;dropTarget=0;whiteSpace=wrap;" parent="1" vertex="1">
          <mxGeometry x="1800" y="365" width="400" height="140" as="geometry" />
        </mxCell>
        <mxCell id="XAuHsIVVw2NcSG9I5JBK-119" value="" style="shape=component;jettyWidth=8;jettyHeight=4;" parent="XAuHsIVVw2NcSG9I5JBK-118" vertex="1">
          <mxGeometry x="1" width="20" height="20" relative="1" as="geometry">
            <mxPoint x="-24" y="4" as="offset" />
          </mxGeometry>
        </mxCell>
        <mxCell id="XAuHsIVVw2NcSG9I5JBK-82" value="Shape" style="swimlane;childLayout=stackLayout;horizontal=1;startSize=40;horizontalStack=0;rounded=1;fontSize=14;fontStyle=0;strokeWidth=2;resizeParent=0;resizeLast=1;shadow=0;dashed=0;align=center;arcSize=4;whiteSpace=wrap;html=1;container=0;fillStyle=solid;glass=0;fillColor=default;" parent="1" vertex="1">
          <mxGeometry x="230" y="-90.5" width="280" height="200" as="geometry">
            <mxRectangle x="580" y="65" width="80" height="40" as="alternateBounds" />
          </mxGeometry>
        </mxCell>
        <mxCell id="XAuHsIVVw2NcSG9I5JBK-83" value="&lt;div&gt;+ counter: int = 0&lt;/div&gt;&lt;div&gt;# _center: Point&lt;/div&gt;&lt;div&gt;# _id: int&amp;nbsp;&lt;/div&gt;&lt;div&gt;&lt;hr&gt;&lt;/div&gt;&lt;div&gt;+ Shape(center: Point)&lt;/div&gt;+ translate(dx: int, dy: int):void = 0&lt;br&gt;+ scale(scalingFactor: float):void = 0&lt;br&gt;+ draw(painter: QPainter):void = 0" style="align=left;spacingLeft=4;spacingRight=4;fontSize=12;verticalAlign=top;resizable=0;rotatable=0;part=1;html=1;whiteSpace=wrap;rounded=0;shadow=0;glass=0;imageAspect=1;strokeColor=default;strokeWidth=2;" parent="XAuHsIVVw2NcSG9I5JBK-82" vertex="1">
          <mxGeometry y="40" width="280" height="160" as="geometry" />
        </mxCell>
        <mxCell id="eC3zg4jJnLnYILMfOMF4-30" style="edgeStyle=orthogonalEdgeStyle;rounded=0;orthogonalLoop=1;jettySize=auto;html=1;endArrow=none;endFill=0;exitX=0.527;exitY=0.003;exitDx=0;exitDy=0;exitPerimeter=0;" parent="1" source="eC3zg4jJnLnYILMfOMF4-17" edge="1">
          <mxGeometry relative="1" as="geometry">
            <mxPoint x="600" y="200" as="targetPoint" />
            <Array as="points">
              <mxPoint x="241" y="200" />
            </Array>
          </mxGeometry>
        </mxCell>
        <mxCell id="eC3zg4jJnLnYILMfOMF4-17" value="Square" style="swimlane;childLayout=stackLayout;horizontal=1;startSize=50;horizontalStack=0;rounded=1;fontSize=14;fontStyle=0;strokeWidth=2;resizeParent=0;resizeLast=1;shadow=0;dashed=0;align=center;arcSize=4;whiteSpace=wrap;html=1;" parent="1" vertex="1">
          <mxGeometry x="130" y="240" width="210" height="160" as="geometry" />
        </mxCell>
        <mxCell id="eC3zg4jJnLnYILMfOMF4-18" value="# _radius: float&lt;br&gt;&lt;div&gt;&lt;hr&gt;&lt;/div&gt;&lt;div&gt;+ Square(center: Point, side: float)&lt;/div&gt;&lt;div&gt;+ draw(painter: QPainter): void&lt;/div&gt;&lt;div&gt;+ scale(scalingFactor: float): void&lt;/div&gt;" style="text;html=1;align=left;verticalAlign=top;resizable=0;points=[];autosize=1;strokeWidth=2;" parent="eC3zg4jJnLnYILMfOMF4-17" vertex="1">
          <mxGeometry y="50" width="210" height="110" as="geometry" />
        </mxCell>
        <mxCell id="4mfTtb763KyPnUBjy1Yq-30" style="edgeStyle=elbowEdgeStyle;rounded=0;orthogonalLoop=1;jettySize=auto;html=1;endArrow=none;endFill=0;" parent="1" source="eC3zg4jJnLnYILMfOMF4-19" edge="1">
          <mxGeometry relative="1" as="geometry">
            <mxPoint x="730.0000000000002" y="200" as="targetPoint" />
          </mxGeometry>
        </mxCell>
        <mxCell id="eC3zg4jJnLnYILMfOMF4-19" value="Rectangle" style="swimlane;childLayout=stackLayout;horizontal=1;startSize=50;horizontalStack=0;rounded=1;fontSize=14;fontStyle=0;strokeWidth=2;resizeParent=0;resizeLast=1;shadow=0;dashed=0;align=center;arcSize=4;whiteSpace=wrap;html=1;" parent="1" vertex="1">
          <mxGeometry x="600" y="240" width="300" height="160" as="geometry">
            <mxRectangle x="880" y="240" width="100" height="50" as="alternateBounds" />
          </mxGeometry>
        </mxCell>
        <mxCell id="eC3zg4jJnLnYILMfOMF4-20" value="# _width: float&lt;div&gt;# _height: float&lt;br&gt;&lt;div&gt;&lt;hr&gt;+ Rectangle(center: Point, width: float, height: float)&lt;/div&gt;&lt;div&gt;+ draw(painter: QPainter): void&lt;/div&gt;&lt;div&gt;+ scale(scalingFactor: float): void&lt;/div&gt;&lt;/div&gt;" style="text;html=1;align=left;verticalAlign=top;resizable=0;points=[];autosize=1;strokeWidth=2;" parent="eC3zg4jJnLnYILMfOMF4-19" vertex="1">
          <mxGeometry y="50" width="300" height="110" as="geometry" />
        </mxCell>
        <mxCell id="eC3zg4jJnLnYILMfOMF4-32" style="edgeStyle=orthogonalEdgeStyle;rounded=0;orthogonalLoop=1;jettySize=auto;html=1;endArrow=none;endFill=0;" parent="1" source="eC3zg4jJnLnYILMfOMF4-21" edge="1">
          <mxGeometry relative="1" as="geometry">
            <mxPoint x="850" y="200" as="targetPoint" />
            <Array as="points">
              <mxPoint x="1040" y="200" />
            </Array>
          </mxGeometry>
        </mxCell>
        <mxCell id="eC3zg4jJnLnYILMfOMF4-21" value="Triangle" style="swimlane;childLayout=stackLayout;horizontal=1;startSize=50;horizontalStack=0;rounded=1;fontSize=14;fontStyle=0;strokeWidth=2;resizeParent=0;resizeLast=1;shadow=0;dashed=0;align=center;arcSize=4;whiteSpace=wrap;html=1;" parent="1" vertex="1">
          <mxGeometry x="920" y="240" width="210" height="160" as="geometry" />
        </mxCell>
        <mxCell id="eC3zg4jJnLnYILMfOMF4-22" value="# _side: float&lt;br&gt;&lt;div&gt;&lt;hr&gt;+ Triangle(center: Point, side: float)&lt;/div&gt;&lt;div&gt;+ draw(painter: QPainter): void&lt;/div&gt;&lt;div&gt;+ scale(scalingFactor: float): void&lt;/div&gt;" style="text;html=1;align=left;verticalAlign=top;resizable=0;points=[];autosize=1;strokeWidth=2;" parent="eC3zg4jJnLnYILMfOMF4-21" vertex="1">
          <mxGeometry y="50" width="210" height="110" as="geometry" />
        </mxCell>
        <mxCell id="eC3zg4jJnLnYILMfOMF4-33" style="edgeStyle=orthogonalEdgeStyle;rounded=0;orthogonalLoop=1;jettySize=auto;html=1;endArrow=none;endFill=0;startArrow=block;startFill=0;startSize=14;" parent="1" edge="1">
          <mxGeometry relative="1" as="geometry">
            <mxPoint x="850" y="200" as="targetPoint" />
            <Array as="points">
              <mxPoint x="380" y="110" />
              <mxPoint x="380" y="180" />
              <mxPoint x="600" y="180" />
              <mxPoint x="600" y="200" />
            </Array>
            <mxPoint x="380" y="110" as="sourcePoint" />
          </mxGeometry>
        </mxCell>
        <mxCell id="eC3zg4jJnLnYILMfOMF4-35" value="MainWindow" style="swimlane;childLayout=stackLayout;horizontal=1;startSize=40;horizontalStack=0;rounded=1;fontSize=14;fontStyle=0;strokeWidth=2;resizeParent=0;resizeLast=1;shadow=0;dashed=0;align=center;arcSize=4;whiteSpace=wrap;html=1;container=0;fillStyle=solid;glass=0;fillColor=default;treeFolding=0;" parent="1" vertex="1">
          <mxGeometry x="550" y="-590.5" width="280" height="200" as="geometry">
            <mxRectangle x="580" y="65" width="80" height="40" as="alternateBounds" />
          </mxGeometry>
        </mxCell>
        <mxCell id="eC3zg4jJnLnYILMfOMF4-36" value="&lt;div&gt;&lt;span style=&quot;background-color: transparent; color: light-dark(rgb(0, 0, 0), rgb(255, 255, 255));&quot;&gt;+ shapes: Shape[ ] = [ ]&lt;/span&gt;&lt;/div&gt;&lt;div&gt;+ commandStack: CommandStack&lt;/div&gt;&lt;div&gt;&lt;hr&gt;&lt;/div&gt;&lt;div&gt;&lt;div&gt;+ MainWindow()&lt;/div&gt;&lt;/div&gt;&lt;div&gt;&lt;span style=&quot;background-color: transparent; color: light-dark(rgb(0, 0, 0), rgb(255, 255, 255));&quot;&gt;+ initUI(): void&lt;/span&gt;&lt;/div&gt;+ paintEvent(e: QPaintEvent): void" style="align=left;spacingLeft=4;spacingRight=4;fontSize=12;verticalAlign=top;resizable=0;rotatable=0;part=1;html=1;whiteSpace=wrap;rounded=0;shadow=0;glass=0;imageAspect=1;strokeColor=default;strokeWidth=2;" parent="eC3zg4jJnLnYILMfOMF4-35" vertex="1">
          <mxGeometry y="40" width="280" height="160" as="geometry" />
        </mxCell>
        <mxCell id="eC3zg4jJnLnYILMfOMF4-41" style="edgeStyle=orthogonalEdgeStyle;rounded=0;orthogonalLoop=1;jettySize=auto;html=1;exitX=-0.002;exitY=0.096;exitDx=0;exitDy=0;exitPerimeter=0;entryX=0.464;entryY=0.005;entryDx=0;entryDy=0;entryPerimeter=0;endArrow=none;endFill=0;startArrow=diamond;startFill=1;startSize=14;" parent="1" source="eC3zg4jJnLnYILMfOMF4-36" target="XAuHsIVVw2NcSG9I5JBK-82" edge="1">
          <mxGeometry relative="1" as="geometry">
            <mxPoint x="680" y="14.5" as="targetPoint" />
          </mxGeometry>
        </mxCell>
        <mxCell id="eC3zg4jJnLnYILMfOMF4-42" value="CommandStack" style="swimlane;childLayout=stackLayout;horizontal=1;startSize=40;horizontalStack=0;rounded=1;fontSize=14;fontStyle=0;strokeWidth=2;resizeParent=0;resizeLast=1;shadow=0;dashed=0;align=center;arcSize=4;whiteSpace=wrap;html=1;container=0;fillStyle=solid;glass=0;fillColor=default;" parent="1" vertex="1">
          <mxGeometry x="550" y="-340.5" width="280" height="200" as="geometry">
            <mxRectangle x="580" y="65" width="80" height="40" as="alternateBounds" />
          </mxGeometry>
        </mxCell>
        <mxCell id="eC3zg4jJnLnYILMfOMF4-43" value="&lt;div&gt;&lt;span style=&quot;background-color: transparent; color: light-dark(rgb(0, 0, 0), rgb(255, 255, 255));&quot;&gt;+ _undoStack: Command[ ]&lt;/span&gt;&lt;/div&gt;&lt;div&gt;+ _redoStack: Command[ ]&amp;nbsp;&lt;/div&gt;&lt;div&gt;&lt;hr&gt;&lt;/div&gt;&lt;div&gt;+ CommandStack()&lt;/div&gt;+ execute(command: Command):void&lt;br&gt;+ undo():void = 0&lt;br&gt;+ redo():void = 0" style="align=left;spacingLeft=4;spacingRight=4;fontSize=12;verticalAlign=top;resizable=0;rotatable=0;part=1;html=1;whiteSpace=wrap;rounded=0;shadow=0;glass=0;imageAspect=1;strokeColor=default;strokeWidth=2;" parent="eC3zg4jJnLnYILMfOMF4-42" vertex="1">
          <mxGeometry y="40" width="280" height="160" as="geometry" />
        </mxCell>
        <mxCell id="eC3zg4jJnLnYILMfOMF4-44" style="edgeStyle=orthogonalEdgeStyle;rounded=0;orthogonalLoop=1;jettySize=auto;html=1;endArrow=diamond;endFill=1;entryX=-0.005;entryY=0.187;entryDx=0;entryDy=0;entryPerimeter=0;exitX=0;exitY=0.358;exitDx=0;exitDy=0;endSize=14;exitPerimeter=0;" parent="1" source="eC3zg4jJnLnYILMfOMF4-43" target="eC3zg4jJnLnYILMfOMF4-36" edge="1">
          <mxGeometry relative="1" as="geometry">
            <mxPoint x="380" y="29.5" as="targetPoint" />
            <Array as="points">
              <mxPoint x="510" y="-243" />
              <mxPoint x="510" y="-521" />
            </Array>
          </mxGeometry>
        </mxCell>
        <mxCell id="da-meSoMWnKq4skf2PyW-42" style="edgeStyle=orthogonalEdgeStyle;rounded=0;orthogonalLoop=1;jettySize=auto;html=1;endArrow=none;endFill=0;" parent="1" source="4mfTtb763KyPnUBjy1Yq-1" edge="1">
          <mxGeometry relative="1" as="geometry">
            <mxPoint x="2360" y="425" as="targetPoint" />
          </mxGeometry>
        </mxCell>
        <mxCell id="da-meSoMWnKq4skf2PyW-48" style="edgeStyle=orthogonalEdgeStyle;rounded=0;orthogonalLoop=1;jettySize=auto;html=1;endArrow=none;endFill=0;startSize=14;startArrow=none;startFill=0;" parent="1" source="4mfTtb763KyPnUBjy1Yq-1" edge="1">
          <mxGeometry relative="1" as="geometry">
            <mxPoint x="2280" y="385" as="targetPoint" />
            <Array as="points">
              <mxPoint x="2280" y="560" />
            </Array>
          </mxGeometry>
        </mxCell>
        <mxCell id="4mfTtb763KyPnUBjy1Yq-1" value="&lt;p style=&quot;margin:0px;margin-top:6px;text-align:center;&quot;&gt;&lt;b&gt;ClearShapeCommand&lt;/b&gt;&lt;/p&gt;&lt;hr size=&quot;1&quot; style=&quot;border-style:solid;&quot;&gt;&lt;p style=&quot;margin: 0px 0px 0px 8px;&quot;&gt;# _shapes: Shape[ ]&lt;/p&gt;&lt;p style=&quot;margin: 0px 0px 0px 8px;&quot;&gt;# _index: int&lt;/p&gt;&lt;hr&gt;&lt;p style=&quot;margin: 0px 0px 0px 8px;&quot;&gt;+ ClearShapeCommand(index: int, shapes: Shapes[ ])&lt;/p&gt;&lt;p style=&quot;margin: 0px 0px 0px 8px;&quot;&gt;+ execute(): void&lt;br&gt;+ undo(): void&lt;/p&gt;&lt;p style=&quot;margin: 0px 0px 0px 8px;&quot;&gt;+ redo(): void&lt;/p&gt;" style="align=left;overflow=fill;html=1;dropTarget=0;whiteSpace=wrap;" parent="1" vertex="1">
          <mxGeometry x="1800" y="525" width="400" height="140" as="geometry" />
        </mxCell>
        <mxCell id="4mfTtb763KyPnUBjy1Yq-2" value="" style="shape=component;jettyWidth=8;jettyHeight=4;" parent="4mfTtb763KyPnUBjy1Yq-1" vertex="1">
          <mxGeometry x="1" width="20" height="20" relative="1" as="geometry">
            <mxPoint x="-24" y="4" as="offset" />
          </mxGeometry>
        </mxCell>
        <mxCell id="4mfTtb763KyPnUBjy1Yq-3" value="Command" style="swimlane;childLayout=stackLayout;horizontal=1;startSize=40;horizontalStack=0;rounded=1;fontSize=14;fontStyle=0;strokeWidth=2;resizeParent=0;resizeLast=1;shadow=0;dashed=0;align=center;arcSize=4;whiteSpace=wrap;html=1;container=0;fillStyle=solid;glass=0;fillColor=default;" parent="1" vertex="1">
          <mxGeometry x="870" y="-340" width="280" height="200" as="geometry">
            <mxRectangle x="580" y="65" width="80" height="40" as="alternateBounds" />
          </mxGeometry>
        </mxCell>
        <mxCell id="4mfTtb763KyPnUBjy1Yq-4" value="&lt;div&gt;&lt;span style=&quot;background-color: transparent; color: light-dark(rgb(0, 0, 0), rgb(255, 255, 255));&quot;&gt;+ execute():void = 0&lt;/span&gt;&lt;/div&gt;+ undo():void = 0&lt;br&gt;+ redo():void = 0" style="align=left;spacingLeft=4;spacingRight=4;fontSize=12;verticalAlign=top;resizable=0;rotatable=0;part=1;html=1;whiteSpace=wrap;rounded=0;shadow=0;glass=0;imageAspect=1;strokeColor=default;strokeWidth=2;" parent="4mfTtb763KyPnUBjy1Yq-3" vertex="1">
          <mxGeometry y="40" width="280" height="160" as="geometry" />
        </mxCell>
        <mxCell id="4mfTtb763KyPnUBjy1Yq-11" style="edgeStyle=orthogonalEdgeStyle;rounded=0;orthogonalLoop=1;jettySize=auto;html=1;entryX=1.002;entryY=0.443;entryDx=0;entryDy=0;entryPerimeter=0;endArrow=none;endFill=0;startArrow=open;startFill=0;strokeWidth=1;endSize=6;startSize=15;" parent="1" target="eC3zg4jJnLnYILMfOMF4-36" edge="1">
          <mxGeometry relative="1" as="geometry">
            <mxPoint x="1030" y="-320.5" as="targetPoint" />
            <Array as="points">
              <mxPoint x="1150" y="-20" />
              <mxPoint x="1230" y="-20" />
              <mxPoint x="1230" y="-480" />
            </Array>
            <mxPoint x="1150" y="-20" as="sourcePoint" />
          </mxGeometry>
        </mxCell>
        <mxCell id="4mfTtb763KyPnUBjy1Yq-26" value="Point" style="swimlane;childLayout=stackLayout;horizontal=1;startSize=40;horizontalStack=0;rounded=1;fontSize=14;fontStyle=0;strokeWidth=2;resizeParent=0;resizeLast=1;shadow=0;dashed=0;align=center;arcSize=4;whiteSpace=wrap;html=1;container=0;fillStyle=solid;glass=0;fillColor=default;" parent="1" vertex="1">
          <mxGeometry x="550" y="-89.5" width="280" height="200" as="geometry">
            <mxRectangle x="580" y="65" width="80" height="40" as="alternateBounds" />
          </mxGeometry>
        </mxCell>
        <mxCell id="4mfTtb763KyPnUBjy1Yq-27" value="&lt;div&gt;&lt;span style=&quot;background-color: transparent; color: light-dark(rgb(0, 0, 0), rgb(255, 255, 255));&quot;&gt;+ x: int&lt;/span&gt;&lt;/div&gt;&lt;div&gt;+ y: int&amp;nbsp;&lt;/div&gt;&lt;div&gt;&lt;hr&gt;&lt;/div&gt;&lt;div&gt;+ Point()&lt;/div&gt;+ translate(dx: int, dy: int):void = 0&lt;div&gt;&lt;br&gt;&lt;/div&gt;" style="align=left;spacingLeft=4;spacingRight=4;fontSize=12;verticalAlign=top;resizable=0;rotatable=0;part=1;html=1;whiteSpace=wrap;rounded=0;shadow=0;glass=0;imageAspect=1;strokeColor=default;strokeWidth=2;" parent="4mfTtb763KyPnUBjy1Yq-26" vertex="1">
          <mxGeometry y="40" width="280" height="160" as="geometry" />
        </mxCell>
        <mxCell id="4mfTtb763KyPnUBjy1Yq-41" style="rounded=0;orthogonalLoop=1;jettySize=auto;html=1;elbow=vertical;endArrow=none;endFill=0;startArrow=none;startFill=0;startSize=0;endSize=14;" parent="1" edge="1">
          <mxGeometry relative="1" as="geometry">
            <mxPoint x="2360" y="265" as="sourcePoint" />
            <mxPoint x="2360" y="-185" as="targetPoint" />
          </mxGeometry>
        </mxCell>
        <mxCell id="4mfTtb763KyPnUBjy1Yq-46" style="rounded=0;orthogonalLoop=1;jettySize=auto;html=1;entryX=1;entryY=0.25;entryDx=0;entryDy=0;edgeStyle=elbowEdgeStyle;elbow=vertical;endArrow=diamond;endFill=1;startArrow=none;startFill=0;startSize=14;targetPerimeterSpacing=0;endSize=14;" parent="1" source="4mfTtb763KyPnUBjy1Yq-27" target="XAuHsIVVw2NcSG9I5JBK-83" edge="1">
          <mxGeometry relative="1" as="geometry" />
        </mxCell>
        <mxCell id="da-meSoMWnKq4skf2PyW-60" style="edgeStyle=orthogonalEdgeStyle;rounded=0;orthogonalLoop=1;jettySize=auto;html=1;dashed=1;dashPattern=8 8;endArrow=none;endFill=0;" parent="1" source="da-meSoMWnKq4skf2PyW-1" edge="1">
          <mxGeometry relative="1" as="geometry">
            <mxPoint x="1360" y="25" as="targetPoint" />
          </mxGeometry>
        </mxCell>
        <mxCell id="da-meSoMWnKq4skf2PyW-1" value="create_circle(): None" style="rounded=1;whiteSpace=wrap;html=1;strokeWidth=2;align=left;spacingLeft=5;" parent="1" vertex="1">
          <mxGeometry x="1400" y="-430" width="160" height="20" as="geometry" />
        </mxCell>
        <mxCell id="da-meSoMWnKq4skf2PyW-31" style="edgeStyle=orthogonalEdgeStyle;rounded=0;orthogonalLoop=1;jettySize=auto;html=1;dashed=1;dashPattern=8 8;endArrow=none;endFill=0;" parent="1" source="da-meSoMWnKq4skf2PyW-2" edge="1">
          <mxGeometry relative="1" as="geometry">
            <mxPoint x="1750" y="-260" as="targetPoint" />
          </mxGeometry>
        </mxCell>
        <mxCell id="da-meSoMWnKq4skf2PyW-62" style="edgeStyle=orthogonalEdgeStyle;rounded=0;orthogonalLoop=1;jettySize=auto;html=1;endArrow=none;endFill=0;dashed=1;dashPattern=8 8;" parent="1" source="da-meSoMWnKq4skf2PyW-2" edge="1">
          <mxGeometry relative="1" as="geometry">
            <mxPoint x="1360" y="-260" as="targetPoint" />
          </mxGeometry>
        </mxCell>
        <mxCell id="da-meSoMWnKq4skf2PyW-2" value="create_triangle(): None" style="rounded=1;whiteSpace=wrap;html=1;strokeWidth=2;align=left;spacingLeft=5;" parent="1" vertex="1">
          <mxGeometry x="1400" y="-270" width="160" height="20" as="geometry" />
        </mxCell>
        <mxCell id="da-meSoMWnKq4skf2PyW-32" style="edgeStyle=orthogonalEdgeStyle;rounded=0;orthogonalLoop=1;jettySize=auto;html=1;dashed=1;dashPattern=8 8;endArrow=none;endFill=0;" parent="1" source="da-meSoMWnKq4skf2PyW-3" edge="1">
          <mxGeometry relative="1" as="geometry">
            <mxPoint x="1750" y="-225" as="targetPoint" />
          </mxGeometry>
        </mxCell>
        <mxCell id="da-meSoMWnKq4skf2PyW-61" style="edgeStyle=orthogonalEdgeStyle;rounded=0;orthogonalLoop=1;jettySize=auto;html=1;endArrow=none;endFill=0;dashed=1;dashPattern=8 8;" parent="1" source="da-meSoMWnKq4skf2PyW-3" edge="1">
          <mxGeometry relative="1" as="geometry">
            <mxPoint x="1360" y="-95" as="targetPoint" />
          </mxGeometry>
        </mxCell>
        <mxCell id="da-meSoMWnKq4skf2PyW-3" value="create_square(): None" style="rounded=1;whiteSpace=wrap;html=1;strokeWidth=2;spacingLeft=5;align=left;" parent="1" vertex="1">
          <mxGeometry x="1400" y="-105" width="160" height="20" as="geometry" />
        </mxCell>
        <mxCell id="da-meSoMWnKq4skf2PyW-8" style="edgeStyle=orthogonalEdgeStyle;rounded=0;orthogonalLoop=1;jettySize=auto;html=1;entryX=1;entryY=0.5;entryDx=0;entryDy=0;dashed=1;dashPattern=8 8;endArrow=none;endFill=0;startArrow=none;startFill=0;endSize=14;startSize=14;" parent="1" target="XAuHsIVVw2NcSG9I5JBK-74" edge="1">
          <mxGeometry relative="1" as="geometry">
            <mxPoint x="1440" y="9" as="sourcePoint" />
          </mxGeometry>
        </mxCell>
        <mxCell id="da-meSoMWnKq4skf2PyW-58" style="edgeStyle=orthogonalEdgeStyle;rounded=0;orthogonalLoop=1;jettySize=auto;html=1;endArrow=none;endFill=0;dashed=1;dashPattern=8 8;" parent="1" source="da-meSoMWnKq4skf2PyW-4" edge="1">
          <mxGeometry relative="1" as="geometry">
            <mxPoint x="1360" y="225" as="targetPoint" />
          </mxGeometry>
        </mxCell>
        <mxCell id="da-meSoMWnKq4skf2PyW-4" value="translate(): None" style="rounded=1;whiteSpace=wrap;html=1;strokeWidth=2;align=left;spacingLeft=5;" parent="1" vertex="1">
          <mxGeometry x="1400" y="215" width="160" height="20" as="geometry" />
        </mxCell>
        <mxCell id="da-meSoMWnKq4skf2PyW-56" style="edgeStyle=orthogonalEdgeStyle;rounded=0;orthogonalLoop=1;jettySize=auto;html=1;dashed=1;dashPattern=8 8;endArrow=none;endFill=0;" parent="1" source="da-meSoMWnKq4skf2PyW-5" edge="1">
          <mxGeometry relative="1" as="geometry">
            <mxPoint x="1360" y="385" as="targetPoint" />
          </mxGeometry>
        </mxCell>
        <mxCell id="da-meSoMWnKq4skf2PyW-5" value="scale&lt;span style=&quot;background-color: transparent; color: light-dark(rgb(0, 0, 0), rgb(255, 255, 255));&quot;&gt;(): None&lt;/span&gt;" style="rounded=1;whiteSpace=wrap;html=1;strokeWidth=2;align=left;spacingLeft=5;" parent="1" vertex="1">
          <mxGeometry x="1400" y="375" width="160" height="20" as="geometry" />
        </mxCell>
        <mxCell id="da-meSoMWnKq4skf2PyW-55" style="edgeStyle=orthogonalEdgeStyle;rounded=0;orthogonalLoop=1;jettySize=auto;html=1;endArrow=none;endFill=0;dashed=1;dashPattern=8 8;" parent="1" source="da-meSoMWnKq4skf2PyW-6" edge="1">
          <mxGeometry relative="1" as="geometry">
            <mxPoint x="1360" y="25" as="targetPoint" />
          </mxGeometry>
        </mxCell>
        <mxCell id="da-meSoMWnKq4skf2PyW-6" value="&lt;span style=&quot;background-color: transparent; color: light-dark(rgb(0, 0, 0), rgb(255, 255, 255));&quot;&gt;clear&lt;/span&gt;&lt;span style=&quot;background-color: transparent; color: light-dark(rgb(0, 0, 0), rgb(255, 255, 255));&quot;&gt;(): None&lt;/span&gt;" style="rounded=1;whiteSpace=wrap;html=1;strokeWidth=2;align=left;spacingLeft=5;" parent="1" vertex="1">
          <mxGeometry x="1400" y="535" width="160" height="20" as="geometry" />
        </mxCell>
        <mxCell id="da-meSoMWnKq4skf2PyW-59" style="edgeStyle=orthogonalEdgeStyle;rounded=0;orthogonalLoop=1;jettySize=auto;html=1;endArrow=none;endFill=0;dashed=1;dashPattern=8 8;" parent="1" source="da-meSoMWnKq4skf2PyW-7" edge="1">
          <mxGeometry relative="1" as="geometry">
            <mxPoint x="1360" y="65" as="targetPoint" />
          </mxGeometry>
        </mxCell>
        <mxCell id="da-meSoMWnKq4skf2PyW-7" value="&lt;span style=&quot;background-color: transparent; color: light-dark(rgb(0, 0, 0), rgb(255, 255, 255));&quot;&gt;create_rectangle&lt;/span&gt;&lt;span style=&quot;background-color: transparent; color: light-dark(rgb(0, 0, 0), rgb(255, 255, 255));&quot;&gt;(): None&lt;/span&gt;" style="rounded=1;whiteSpace=wrap;html=1;strokeWidth=2;align=left;spacingLeft=5;" parent="1" vertex="1">
          <mxGeometry x="1400" y="55" width="160" height="20" as="geometry" />
        </mxCell>
        <mxCell id="da-meSoMWnKq4skf2PyW-9" value="InputCircleDialog" style="swimlane;childLayout=stackLayout;horizontal=1;startSize=50;horizontalStack=0;rounded=1;fontSize=14;fontStyle=0;strokeWidth=2;resizeParent=0;resizeLast=1;shadow=0;dashed=0;align=center;arcSize=4;whiteSpace=wrap;html=1;" parent="1" vertex="1">
          <mxGeometry x="1400" y="-410" width="280" height="110" as="geometry" />
        </mxCell>
        <mxCell id="da-meSoMWnKq4skf2PyW-10" value="&lt;div&gt;+ InputCircleDialog(parent: QWidget&amp;nbsp; = None)&lt;/div&gt;+ get_dialogs(type:string):&amp;nbsp;&lt;div&gt;&lt;span style=&quot;white-space: pre;&quot;&gt;&#x9;&lt;/span&gt;Dict&amp;lt;string -&amp;gt; action&amp;gt;&lt;div&gt;&lt;br&gt;&lt;/div&gt;&lt;/div&gt;" style="align=left;spacingLeft=4;spacingRight=4;fontSize=12;verticalAlign=top;resizable=0;rotatable=0;part=1;html=1;whiteSpace=wrap;strokeWidth=2;rounded=0;strokeColor=default;" parent="da-meSoMWnKq4skf2PyW-9" vertex="1">
          <mxGeometry y="50" width="280" height="60" as="geometry" />
        </mxCell>
        <mxCell id="da-meSoMWnKq4skf2PyW-11" value="InputTriangleDialog" style="swimlane;childLayout=stackLayout;horizontal=1;startSize=50;horizontalStack=0;rounded=1;fontSize=14;fontStyle=0;strokeWidth=2;resizeParent=0;resizeLast=1;shadow=0;dashed=0;align=center;arcSize=4;whiteSpace=wrap;html=1;" parent="1" vertex="1">
          <mxGeometry x="1400" y="-250" width="280" height="110" as="geometry" />
        </mxCell>
        <mxCell id="da-meSoMWnKq4skf2PyW-12" value="&lt;div&gt;+ InputTriangleDialog(parent: QWidget = None)&lt;/div&gt;+ get_dialogs(type:string):&amp;nbsp;&lt;div&gt;&lt;span style=&quot;white-space: pre;&quot;&gt;&#x9;&lt;/span&gt;Dict&amp;lt;string -&amp;gt; action&amp;gt;&lt;div&gt;&lt;br&gt;&lt;/div&gt;&lt;/div&gt;" style="align=left;spacingLeft=4;spacingRight=4;fontSize=12;verticalAlign=top;resizable=0;rotatable=0;part=1;html=1;whiteSpace=wrap;strokeWidth=2;rounded=0;strokeColor=default;" parent="da-meSoMWnKq4skf2PyW-11" vertex="1">
          <mxGeometry y="50" width="280" height="60" as="geometry" />
        </mxCell>
        <mxCell id="da-meSoMWnKq4skf2PyW-13" value="InputSquareDialog" style="swimlane;childLayout=stackLayout;horizontal=1;startSize=50;horizontalStack=0;rounded=1;fontSize=14;fontStyle=0;strokeWidth=2;resizeParent=0;resizeLast=1;shadow=0;dashed=0;align=center;arcSize=4;whiteSpace=wrap;html=1;" parent="1" vertex="1">
          <mxGeometry x="1400" y="-85" width="280" height="110" as="geometry" />
        </mxCell>
        <mxCell id="da-meSoMWnKq4skf2PyW-14" value="&lt;div&gt;+ InputSquareDialog(parent: QWidget = None)&lt;/div&gt;+ get_dialogs(type:string):&amp;nbsp;&lt;div&gt;&lt;span style=&quot;white-space: pre;&quot;&gt;&#x9;&lt;/span&gt;Dict&amp;lt;string -&amp;gt; action&amp;gt;&lt;div&gt;&lt;br&gt;&lt;/div&gt;&lt;/div&gt;" style="align=left;spacingLeft=4;spacingRight=4;fontSize=12;verticalAlign=top;resizable=0;rotatable=0;part=1;html=1;whiteSpace=wrap;strokeWidth=2;rounded=0;strokeColor=default;" parent="da-meSoMWnKq4skf2PyW-13" vertex="1">
          <mxGeometry y="50" width="280" height="60" as="geometry" />
        </mxCell>
        <mxCell id="da-meSoMWnKq4skf2PyW-15" value="TranslateShapeDialog" style="swimlane;childLayout=stackLayout;horizontal=1;startSize=50;horizontalStack=0;rounded=1;fontSize=14;fontStyle=0;strokeWidth=2;resizeParent=0;resizeLast=1;shadow=0;dashed=0;align=center;arcSize=4;whiteSpace=wrap;html=1;" parent="1" vertex="1">
          <mxGeometry x="1400" y="235" width="280" height="110" as="geometry" />
        </mxCell>
        <mxCell id="da-meSoMWnKq4skf2PyW-16" value="&lt;div&gt;+ TranslateShapeDialog(parent: QWidget = None)&lt;/div&gt;+ get_dialogs(type:string):&amp;nbsp;&lt;div&gt;&lt;span style=&quot;white-space: pre;&quot;&gt;&#x9;&lt;/span&gt;Dict&amp;lt;string -&amp;gt; action&amp;gt;&lt;div&gt;&lt;br&gt;&lt;/div&gt;&lt;/div&gt;" style="align=left;spacingLeft=4;spacingRight=4;fontSize=12;verticalAlign=top;resizable=0;rotatable=0;part=1;html=1;whiteSpace=wrap;strokeWidth=2;rounded=0;strokeColor=default;" parent="da-meSoMWnKq4skf2PyW-15" vertex="1">
          <mxGeometry y="50" width="280" height="60" as="geometry" />
        </mxCell>
        <mxCell id="da-meSoMWnKq4skf2PyW-17" value="ScaleShapeDialog" style="swimlane;childLayout=stackLayout;horizontal=1;startSize=50;horizontalStack=0;rounded=1;fontSize=14;fontStyle=0;strokeWidth=2;resizeParent=0;resizeLast=1;shadow=0;dashed=0;align=center;arcSize=4;whiteSpace=wrap;html=1;" parent="1" vertex="1">
          <mxGeometry x="1400" y="395" width="280" height="110" as="geometry" />
        </mxCell>
        <mxCell id="da-meSoMWnKq4skf2PyW-18" value="&lt;div&gt;+ ScaleShapeDialog(parent: QWidget = None)&lt;/div&gt;+ get_dialogs(type:string):&amp;nbsp;&lt;div&gt;&lt;span style=&quot;white-space: pre;&quot;&gt;&#x9;&lt;/span&gt;Dict&amp;lt;string -&amp;gt; action&amp;gt;&lt;div&gt;&lt;br&gt;&lt;/div&gt;&lt;/div&gt;" style="align=left;spacingLeft=4;spacingRight=4;fontSize=12;verticalAlign=top;resizable=0;rotatable=0;part=1;html=1;whiteSpace=wrap;strokeWidth=2;rounded=0;strokeColor=default;" parent="da-meSoMWnKq4skf2PyW-17" vertex="1">
          <mxGeometry y="50" width="280" height="60" as="geometry" />
        </mxCell>
        <mxCell id="da-meSoMWnKq4skf2PyW-20" value="ClearShapeDialog" style="swimlane;childLayout=stackLayout;horizontal=1;startSize=50;horizontalStack=0;rounded=1;fontSize=14;fontStyle=0;strokeWidth=2;resizeParent=0;resizeLast=1;shadow=0;dashed=0;align=center;arcSize=4;whiteSpace=wrap;html=1;" parent="1" vertex="1">
          <mxGeometry x="1400" y="555" width="280" height="110" as="geometry" />
        </mxCell>
        <mxCell id="da-meSoMWnKq4skf2PyW-21" value="&lt;div&gt;+ ClearShapeDialog(parent: QWidget = None)&lt;/div&gt;+ get_dialogs(type:string):&amp;nbsp;&lt;div&gt;&lt;span style=&quot;white-space: pre;&quot;&gt;&#x9;&lt;/span&gt;Dict&amp;lt;string -&amp;gt; action&amp;gt;&lt;div&gt;&lt;br&gt;&lt;/div&gt;&lt;/div&gt;" style="align=left;spacingLeft=4;spacingRight=4;fontSize=12;verticalAlign=top;resizable=0;rotatable=0;part=1;html=1;whiteSpace=wrap;strokeWidth=2;rounded=0;strokeColor=default;" parent="da-meSoMWnKq4skf2PyW-20" vertex="1">
          <mxGeometry y="50" width="280" height="60" as="geometry" />
        </mxCell>
        <mxCell id="da-meSoMWnKq4skf2PyW-23" value="InputRectangleDialog" style="swimlane;childLayout=stackLayout;horizontal=1;startSize=50;horizontalStack=0;rounded=1;fontSize=14;fontStyle=0;strokeWidth=2;resizeParent=0;resizeLast=1;shadow=0;dashed=0;align=center;arcSize=4;whiteSpace=wrap;html=1;" parent="1" vertex="1">
          <mxGeometry x="1400" y="75" width="280" height="110" as="geometry" />
        </mxCell>
        <mxCell id="da-meSoMWnKq4skf2PyW-24" value="&lt;div&gt;+ InputRectangleDialog(parent: QWidget = None)&lt;/div&gt;+ get_dialogs(type:string):&amp;nbsp;&lt;div&gt;&lt;span style=&quot;white-space: pre;&quot;&gt;&#x9;&lt;/span&gt;Dict&amp;lt;string -&amp;gt; action&amp;gt;&lt;div&gt;&lt;br&gt;&lt;/div&gt;&lt;/div&gt;" style="align=left;spacingLeft=4;spacingRight=4;fontSize=12;verticalAlign=top;resizable=0;rotatable=0;part=1;html=1;whiteSpace=wrap;strokeWidth=2;rounded=0;strokeColor=default;" parent="da-meSoMWnKq4skf2PyW-23" vertex="1">
          <mxGeometry y="50" width="280" height="60" as="geometry" />
        </mxCell>
        <mxCell id="da-meSoMWnKq4skf2PyW-45" style="edgeStyle=orthogonalEdgeStyle;rounded=0;orthogonalLoop=1;jettySize=auto;html=1;entryX=0.25;entryY=0;entryDx=0;entryDy=0;endArrow=none;endFill=0;startArrow=none;startFill=0;endSize=14;startSize=14;" parent="1" target="XAuHsIVVw2NcSG9I5JBK-82" edge="1">
          <mxGeometry relative="1" as="geometry">
            <Array as="points">
              <mxPoint x="2280" y="-660" />
              <mxPoint x="300" y="-660" />
            </Array>
            <mxPoint x="2280" y="-220" as="sourcePoint" />
          </mxGeometry>
        </mxCell>
        <mxCell id="da-meSoMWnKq4skf2PyW-49" style="edgeStyle=orthogonalEdgeStyle;rounded=0;orthogonalLoop=1;jettySize=auto;html=1;endArrow=none;endFill=0;" parent="1" edge="1">
          <mxGeometry relative="1" as="geometry">
            <mxPoint x="2360" y="-185" as="targetPoint" />
            <mxPoint x="2200" y="-185" as="sourcePoint" />
            <Array as="points">
              <mxPoint x="2200" y="-200" />
              <mxPoint x="2360" y="-200" />
            </Array>
          </mxGeometry>
        </mxCell>
        <mxCell id="XAuHsIVVw2NcSG9I5JBK-112" value="&lt;p style=&quot;margin:0px;margin-top:6px;text-align:center;&quot;&gt;&lt;b&gt;CreateShapeCommand&lt;/b&gt;&lt;/p&gt;&lt;hr size=&quot;1&quot; style=&quot;border-style:solid;&quot;&gt;&lt;p style=&quot;margin:0px;margin-left:8px;&quot;&gt;# _shapes: Shape[ ]&lt;/p&gt;&lt;p style=&quot;margin:0px;margin-left:8px;&quot;&gt;# _shape: Shape&lt;/p&gt;&lt;hr&gt;&lt;p style=&quot;margin:0px;margin-left:8px;&quot;&gt;+ CreateShapeCommand(shape:Shape, shapes: Shape[ ])&lt;/p&gt;&lt;p style=&quot;margin:0px;margin-left:8px;&quot;&gt;+ execute(): void&lt;br&gt;+ undo(): void&lt;/p&gt;&lt;p style=&quot;margin:0px;margin-left:8px;&quot;&gt;+ redo(): void&lt;/p&gt;" style="align=left;overflow=fill;html=1;dropTarget=0;whiteSpace=wrap;" parent="1" vertex="1">
          <mxGeometry x="1800" y="-305" width="400" height="160" as="geometry" />
        </mxCell>
        <mxCell id="XAuHsIVVw2NcSG9I5JBK-113" value="" style="shape=component;jettyWidth=8;jettyHeight=4;" parent="XAuHsIVVw2NcSG9I5JBK-112" vertex="1">
          <mxGeometry x="1" width="20" height="20" relative="1" as="geometry">
            <mxPoint x="-24" y="4" as="offset" />
          </mxGeometry>
        </mxCell>
        <mxCell id="da-meSoMWnKq4skf2PyW-33" style="edgeStyle=orthogonalEdgeStyle;rounded=0;orthogonalLoop=1;jettySize=auto;html=1;dashed=1;dashPattern=8 8;endArrow=none;endFill=0;" parent="1" edge="1">
          <mxGeometry relative="1" as="geometry">
            <mxPoint x="1750" y="-85" as="targetPoint" />
            <mxPoint x="1560" y="65" as="sourcePoint" />
          </mxGeometry>
        </mxCell>
        <mxCell id="da-meSoMWnKq4skf2PyW-36" style="edgeStyle=orthogonalEdgeStyle;rounded=0;orthogonalLoop=1;jettySize=auto;html=1;entryX=-0.009;entryY=0.136;entryDx=0;entryDy=0;entryPerimeter=0;dashed=1;dashPattern=8 8;endArrow=open;endFill=0;endSize=14;" parent="1" source="da-meSoMWnKq4skf2PyW-5" target="XAuHsIVVw2NcSG9I5JBK-118" edge="1">
          <mxGeometry relative="1" as="geometry" />
        </mxCell>
        <mxCell id="da-meSoMWnKq4skf2PyW-37" style="edgeStyle=orthogonalEdgeStyle;rounded=0;orthogonalLoop=1;jettySize=auto;html=1;entryX=-0.003;entryY=0.147;entryDx=0;entryDy=0;entryPerimeter=0;dashed=1;dashPattern=8 8;endArrow=open;endFill=0;endSize=14;" parent="1" source="da-meSoMWnKq4skf2PyW-6" target="4mfTtb763KyPnUBjy1Yq-1" edge="1">
          <mxGeometry relative="1" as="geometry" />
        </mxCell>
        <mxCell id="da-meSoMWnKq4skf2PyW-39" style="edgeStyle=orthogonalEdgeStyle;rounded=0;orthogonalLoop=1;jettySize=auto;html=1;dashed=1;dashPattern=8 8;endArrow=open;endFill=0;endSize=14;" parent="1" source="da-meSoMWnKq4skf2PyW-4" target="XAuHsIVVw2NcSG9I5JBK-116" edge="1">
          <mxGeometry relative="1" as="geometry">
            <Array as="points">
              <mxPoint x="1740" y="225" />
              <mxPoint x="1740" y="225" />
            </Array>
          </mxGeometry>
        </mxCell>
        <mxCell id="4VdDI7-kdScme0JX5QMq-1" style="edgeStyle=orthogonalEdgeStyle;rounded=0;orthogonalLoop=1;jettySize=auto;html=1;endArrow=none;endFill=0;startArrow=diamond;startFill=1;endSize=0;startSize=14;" edge="1" parent="1" source="eC3zg4jJnLnYILMfOMF4-43">
          <mxGeometry relative="1" as="geometry">
            <mxPoint x="870" y="-220.5" as="targetPoint" />
          </mxGeometry>
        </mxCell>
      </root>
    </mxGraphModel>
  </diagram>
</mxfile>
